<mxfile host="app.diagrams.net" modified="2023-02-22T11:25:34.802Z" agent="5.0 (Macintosh; Intel Mac OS X 10_15_7) AppleWebKit/537.36 (KHTML, like Gecko) Chrome/109.0.0.0 Safari/537.36" etag="LPBdu-xJBu4udZ5Ji7LX" version="20.8.20" type="github">
  <diagram name="Page-1" id="nL-B-oJyb3y3g8jjq5P1">
    <mxGraphModel dx="984" dy="585" grid="1" gridSize="10" guides="1" tooltips="1" connect="1" arrows="1" fold="1" page="1" pageScale="1" pageWidth="1100" pageHeight="850" math="0" shadow="0">
      <root>
        <mxCell id="0" />
        <mxCell id="1" parent="0" />
        <mxCell id="Jd9YhAcsdi76doxtZ0r0-1" value="ElÃ¨ve" style="shape=umlActor;verticalLabelPosition=bottom;verticalAlign=top;html=1;outlineConnect=0;" parent="1" vertex="1">
          <mxGeometry x="80" y="130" width="30" height="60" as="geometry" />
        </mxCell>
        <mxCell id="Jd9YhAcsdi76doxtZ0r0-2" value="professeur" style="shape=umlActor;verticalLabelPosition=bottom;verticalAlign=top;html=1;outlineConnect=0;" parent="1" vertex="1">
          <mxGeometry x="110" y="800" width="30" height="60" as="geometry" />
        </mxCell>
        <mxCell id="Jd9YhAcsdi76doxtZ0r0-3" value="Username" style="ellipse;whiteSpace=wrap;html=1;" parent="1" vertex="1">
          <mxGeometry x="240" y="40" width="120" height="80" as="geometry" />
        </mxCell>
        <mxCell id="Jd9YhAcsdi76doxtZ0r0-4" value="passeword" style="ellipse;whiteSpace=wrap;html=1;" parent="1" vertex="1">
          <mxGeometry x="240" y="150" width="120" height="80" as="geometry" />
        </mxCell>
        <mxCell id="Jd9YhAcsdi76doxtZ0r0-5" value="remember me" style="ellipse;whiteSpace=wrap;html=1;" parent="1" vertex="1">
          <mxGeometry x="240" y="260" width="120" height="80" as="geometry" />
        </mxCell>
        <mxCell id="Jd9YhAcsdi76doxtZ0r0-6" value="forgot your passeword" style="ellipse;whiteSpace=wrap;html=1;" parent="1" vertex="1">
          <mxGeometry x="230" y="370" width="140" height="80" as="geometry" />
        </mxCell>
        <mxCell id="Jd9YhAcsdi76doxtZ0r0-7" value="new here? sign up" style="ellipse;whiteSpace=wrap;html=1;" parent="1" vertex="1">
          <mxGeometry x="240" y="470" width="120" height="80" as="geometry" />
        </mxCell>
        <mxCell id="Jd9YhAcsdi76doxtZ0r0-10" value="" style="endArrow=none;html=1;rounded=0;entryX=-0.025;entryY=0.594;entryDx=0;entryDy=0;entryPerimeter=0;" parent="1" target="Jd9YhAcsdi76doxtZ0r0-3" edge="1">
          <mxGeometry width="50" height="50" relative="1" as="geometry">
            <mxPoint x="120" y="170" as="sourcePoint" />
            <mxPoint x="180" y="120" as="targetPoint" />
          </mxGeometry>
        </mxCell>
        <mxCell id="Jd9YhAcsdi76doxtZ0r0-11" value="" style="endArrow=none;html=1;rounded=0;" parent="1" target="Jd9YhAcsdi76doxtZ0r0-5" edge="1">
          <mxGeometry width="50" height="50" relative="1" as="geometry">
            <mxPoint x="120" y="215" as="sourcePoint" />
            <mxPoint x="170" y="165" as="targetPoint" />
          </mxGeometry>
        </mxCell>
        <mxCell id="Jd9YhAcsdi76doxtZ0r0-12" value="" style="endArrow=none;html=1;rounded=0;" parent="1" target="Jd9YhAcsdi76doxtZ0r0-4" edge="1">
          <mxGeometry width="50" height="50" relative="1" as="geometry">
            <mxPoint x="130" y="190" as="sourcePoint" />
            <mxPoint x="180" y="140" as="targetPoint" />
          </mxGeometry>
        </mxCell>
        <mxCell id="Jd9YhAcsdi76doxtZ0r0-14" value="" style="endArrow=none;html=1;rounded=0;entryX=0.179;entryY=0.069;entryDx=0;entryDy=0;entryPerimeter=0;" parent="1" target="Jd9YhAcsdi76doxtZ0r0-6" edge="1">
          <mxGeometry width="50" height="50" relative="1" as="geometry">
            <mxPoint x="120" y="250" as="sourcePoint" />
            <mxPoint x="170" y="200" as="targetPoint" />
          </mxGeometry>
        </mxCell>
        <mxCell id="Jd9YhAcsdi76doxtZ0r0-15" value="" style="endArrow=none;html=1;rounded=0;entryX=0;entryY=0.375;entryDx=0;entryDy=0;entryPerimeter=0;" parent="1" target="Jd9YhAcsdi76doxtZ0r0-7" edge="1">
          <mxGeometry width="50" height="50" relative="1" as="geometry">
            <mxPoint x="100" y="270" as="sourcePoint" />
            <mxPoint x="230" y="480" as="targetPoint" />
          </mxGeometry>
        </mxCell>
        <mxCell id="Jd9YhAcsdi76doxtZ0r0-18" value="Username" style="ellipse;whiteSpace=wrap;html=1;" parent="1" vertex="1">
          <mxGeometry x="250" y="690" width="120" height="80" as="geometry" />
        </mxCell>
        <mxCell id="Jd9YhAcsdi76doxtZ0r0-19" value="passeword" style="ellipse;whiteSpace=wrap;html=1;" parent="1" vertex="1">
          <mxGeometry x="250" y="780" width="120" height="80" as="geometry" />
        </mxCell>
        <mxCell id="Jd9YhAcsdi76doxtZ0r0-20" value="remember me" style="ellipse;whiteSpace=wrap;html=1;" parent="1" vertex="1">
          <mxGeometry x="250" y="880" width="120" height="80" as="geometry" />
        </mxCell>
        <mxCell id="Jd9YhAcsdi76doxtZ0r0-21" value="forgot your passeword" style="ellipse;whiteSpace=wrap;html=1;" parent="1" vertex="1">
          <mxGeometry x="240" y="980" width="140" height="80" as="geometry" />
        </mxCell>
        <mxCell id="Jd9YhAcsdi76doxtZ0r0-22" value="new here? sign up" style="ellipse;whiteSpace=wrap;html=1;" parent="1" vertex="1">
          <mxGeometry x="250" y="1080" width="120" height="80" as="geometry" />
        </mxCell>
        <mxCell id="Jd9YhAcsdi76doxtZ0r0-23" value="" style="endArrow=none;html=1;rounded=0;" parent="1" edge="1">
          <mxGeometry width="50" height="50" relative="1" as="geometry">
            <mxPoint x="143" y="812" as="sourcePoint" />
            <mxPoint x="240" y="750" as="targetPoint" />
          </mxGeometry>
        </mxCell>
        <mxCell id="Jd9YhAcsdi76doxtZ0r0-24" value="" style="endArrow=none;html=1;rounded=0;" parent="1" edge="1">
          <mxGeometry width="50" height="50" relative="1" as="geometry">
            <mxPoint x="150" y="830" as="sourcePoint" />
            <mxPoint x="250" y="829.5" as="targetPoint" />
          </mxGeometry>
        </mxCell>
        <mxCell id="Jd9YhAcsdi76doxtZ0r0-25" value="" style="endArrow=none;html=1;rounded=0;" parent="1" edge="1">
          <mxGeometry width="50" height="50" relative="1" as="geometry">
            <mxPoint x="150" y="850" as="sourcePoint" />
            <mxPoint x="250" y="900" as="targetPoint" />
          </mxGeometry>
        </mxCell>
        <mxCell id="Jd9YhAcsdi76doxtZ0r0-26" value="" style="endArrow=none;html=1;rounded=0;" parent="1" edge="1">
          <mxGeometry width="50" height="50" relative="1" as="geometry">
            <mxPoint x="160" y="890" as="sourcePoint" />
            <mxPoint x="240" y="990" as="targetPoint" />
          </mxGeometry>
        </mxCell>
        <mxCell id="Jd9YhAcsdi76doxtZ0r0-27" value="" style="endArrow=none;html=1;rounded=0;" parent="1" edge="1">
          <mxGeometry width="50" height="50" relative="1" as="geometry">
            <mxPoint x="140" y="900" as="sourcePoint" />
            <mxPoint x="250" y="1100" as="targetPoint" />
          </mxGeometry>
        </mxCell>
        <mxCell id="Jd9YhAcsdi76doxtZ0r0-28" value="student monitoring" style="ellipse;whiteSpace=wrap;html=1;" parent="1" vertex="1">
          <mxGeometry x="250" y="1290" width="120" height="80" as="geometry" />
        </mxCell>
        <mxCell id="Jd9YhAcsdi76doxtZ0r0-29" value="" style="endArrow=none;html=1;rounded=0;entryX=0.008;entryY=0.275;entryDx=0;entryDy=0;entryPerimeter=0;" parent="1" target="Jd9YhAcsdi76doxtZ0r0-49" edge="1">
          <mxGeometry width="50" height="50" relative="1" as="geometry">
            <mxPoint x="120" y="900" as="sourcePoint" />
            <mxPoint x="240" y="1180" as="targetPoint" />
          </mxGeometry>
        </mxCell>
        <mxCell id="Jd9YhAcsdi76doxtZ0r0-30" value="" style="endArrow=none;html=1;rounded=0;" parent="1" edge="1">
          <mxGeometry width="50" height="50" relative="1" as="geometry">
            <mxPoint x="200" y="570" as="sourcePoint" />
            <mxPoint x="200" y="30" as="targetPoint" />
          </mxGeometry>
        </mxCell>
        <mxCell id="Jd9YhAcsdi76doxtZ0r0-32" value="" style="endArrow=none;html=1;rounded=0;" parent="1" edge="1">
          <mxGeometry width="50" height="50" relative="1" as="geometry">
            <mxPoint x="200" y="1300" as="sourcePoint" />
            <mxPoint x="200" y="700" as="targetPoint" />
          </mxGeometry>
        </mxCell>
        <mxCell id="Jd9YhAcsdi76doxtZ0r0-47" value="close account" style="ellipse;whiteSpace=wrap;html=1;" parent="1" vertex="1">
          <mxGeometry x="240" y="560" width="120" height="80" as="geometry" />
        </mxCell>
        <mxCell id="Jd9YhAcsdi76doxtZ0r0-48" value="" style="endArrow=none;html=1;rounded=0;entryX=0;entryY=0.375;entryDx=0;entryDy=0;entryPerimeter=0;" parent="1" edge="1">
          <mxGeometry width="50" height="50" relative="1" as="geometry">
            <mxPoint x="100" y="300" as="sourcePoint" />
            <mxPoint x="240" y="580" as="targetPoint" />
          </mxGeometry>
        </mxCell>
        <mxCell id="Jd9YhAcsdi76doxtZ0r0-49" value="close account" style="ellipse;whiteSpace=wrap;html=1;" parent="1" vertex="1">
          <mxGeometry x="250" y="1180" width="120" height="80" as="geometry" />
        </mxCell>
        <mxCell id="Jd9YhAcsdi76doxtZ0r0-50" value="" style="endArrow=none;html=1;rounded=0;" parent="1" edge="1">
          <mxGeometry width="50" height="50" relative="1" as="geometry">
            <mxPoint x="110" y="910" as="sourcePoint" />
            <mxPoint x="250" y="1320" as="targetPoint" />
          </mxGeometry>
        </mxCell>
        <mxCell id="fUZlL1Y9kI9AsYJCedoD-1" value="Connexion" style="text;html=1;strokeColor=none;fillColor=none;align=center;verticalAlign=middle;whiteSpace=wrap;rounded=0;" vertex="1" parent="1">
          <mxGeometry x="65" y="20" width="60" height="30" as="geometry" />
        </mxCell>
        <mxCell id="fUZlL1Y9kI9AsYJCedoD-215" value="ElÃ¨ve" style="shape=umlActor;verticalLabelPosition=bottom;verticalAlign=top;html=1;outlineConnect=0;" vertex="1" parent="1">
          <mxGeometry x="395" y="140" width="30" height="60" as="geometry" />
        </mxCell>
        <mxCell id="fUZlL1Y9kI9AsYJCedoD-216" value="professeur" style="shape=umlActor;verticalLabelPosition=bottom;verticalAlign=top;html=1;outlineConnect=0;" vertex="1" parent="1">
          <mxGeometry x="425" y="810" width="30" height="60" as="geometry" />
        </mxCell>
        <mxCell id="fUZlL1Y9kI9AsYJCedoD-217" value="Username" style="ellipse;whiteSpace=wrap;html=1;" vertex="1" parent="1">
          <mxGeometry x="555" y="50" width="120" height="80" as="geometry" />
        </mxCell>
        <mxCell id="fUZlL1Y9kI9AsYJCedoD-218" value="passeword" style="ellipse;whiteSpace=wrap;html=1;" vertex="1" parent="1">
          <mxGeometry x="555" y="160" width="120" height="80" as="geometry" />
        </mxCell>
        <mxCell id="fUZlL1Y9kI9AsYJCedoD-219" value="remember me" style="ellipse;whiteSpace=wrap;html=1;" vertex="1" parent="1">
          <mxGeometry x="555" y="270" width="120" height="80" as="geometry" />
        </mxCell>
        <mxCell id="fUZlL1Y9kI9AsYJCedoD-220" value="forgot your passeword" style="ellipse;whiteSpace=wrap;html=1;" vertex="1" parent="1">
          <mxGeometry x="545" y="380" width="140" height="80" as="geometry" />
        </mxCell>
        <mxCell id="fUZlL1Y9kI9AsYJCedoD-221" value="new here? sign up" style="ellipse;whiteSpace=wrap;html=1;" vertex="1" parent="1">
          <mxGeometry x="555" y="480" width="120" height="80" as="geometry" />
        </mxCell>
        <mxCell id="fUZlL1Y9kI9AsYJCedoD-222" value="" style="endArrow=none;html=1;rounded=0;entryX=-0.025;entryY=0.594;entryDx=0;entryDy=0;entryPerimeter=0;" edge="1" parent="1" target="fUZlL1Y9kI9AsYJCedoD-217">
          <mxGeometry width="50" height="50" relative="1" as="geometry">
            <mxPoint x="435" y="180" as="sourcePoint" />
            <mxPoint x="495" y="130" as="targetPoint" />
          </mxGeometry>
        </mxCell>
        <mxCell id="fUZlL1Y9kI9AsYJCedoD-223" value="" style="endArrow=none;html=1;rounded=0;" edge="1" parent="1" target="fUZlL1Y9kI9AsYJCedoD-219">
          <mxGeometry width="50" height="50" relative="1" as="geometry">
            <mxPoint x="435" y="225" as="sourcePoint" />
            <mxPoint x="485" y="175" as="targetPoint" />
          </mxGeometry>
        </mxCell>
        <mxCell id="fUZlL1Y9kI9AsYJCedoD-224" value="" style="endArrow=none;html=1;rounded=0;" edge="1" parent="1" target="fUZlL1Y9kI9AsYJCedoD-218">
          <mxGeometry width="50" height="50" relative="1" as="geometry">
            <mxPoint x="445" y="200" as="sourcePoint" />
            <mxPoint x="495" y="150" as="targetPoint" />
          </mxGeometry>
        </mxCell>
        <mxCell id="fUZlL1Y9kI9AsYJCedoD-225" value="" style="endArrow=none;html=1;rounded=0;entryX=0.179;entryY=0.069;entryDx=0;entryDy=0;entryPerimeter=0;" edge="1" parent="1" target="fUZlL1Y9kI9AsYJCedoD-220">
          <mxGeometry width="50" height="50" relative="1" as="geometry">
            <mxPoint x="435" y="260" as="sourcePoint" />
            <mxPoint x="485" y="210" as="targetPoint" />
          </mxGeometry>
        </mxCell>
        <mxCell id="fUZlL1Y9kI9AsYJCedoD-226" value="" style="endArrow=none;html=1;rounded=0;entryX=0;entryY=0.375;entryDx=0;entryDy=0;entryPerimeter=0;" edge="1" parent="1" target="fUZlL1Y9kI9AsYJCedoD-221">
          <mxGeometry width="50" height="50" relative="1" as="geometry">
            <mxPoint x="415" y="280" as="sourcePoint" />
            <mxPoint x="545" y="490" as="targetPoint" />
          </mxGeometry>
        </mxCell>
        <mxCell id="fUZlL1Y9kI9AsYJCedoD-227" value="Username" style="ellipse;whiteSpace=wrap;html=1;" vertex="1" parent="1">
          <mxGeometry x="565" y="700" width="120" height="80" as="geometry" />
        </mxCell>
        <mxCell id="fUZlL1Y9kI9AsYJCedoD-228" value="passeword" style="ellipse;whiteSpace=wrap;html=1;" vertex="1" parent="1">
          <mxGeometry x="565" y="790" width="120" height="80" as="geometry" />
        </mxCell>
        <mxCell id="fUZlL1Y9kI9AsYJCedoD-229" value="remember me" style="ellipse;whiteSpace=wrap;html=1;" vertex="1" parent="1">
          <mxGeometry x="565" y="890" width="120" height="80" as="geometry" />
        </mxCell>
        <mxCell id="fUZlL1Y9kI9AsYJCedoD-230" value="forgot your passeword" style="ellipse;whiteSpace=wrap;html=1;" vertex="1" parent="1">
          <mxGeometry x="555" y="990" width="140" height="80" as="geometry" />
        </mxCell>
        <mxCell id="fUZlL1Y9kI9AsYJCedoD-231" value="new here? sign up" style="ellipse;whiteSpace=wrap;html=1;" vertex="1" parent="1">
          <mxGeometry x="565" y="1090" width="120" height="80" as="geometry" />
        </mxCell>
        <mxCell id="fUZlL1Y9kI9AsYJCedoD-232" value="" style="endArrow=none;html=1;rounded=0;" edge="1" parent="1">
          <mxGeometry width="50" height="50" relative="1" as="geometry">
            <mxPoint x="458" y="822" as="sourcePoint" />
            <mxPoint x="555" y="760" as="targetPoint" />
          </mxGeometry>
        </mxCell>
        <mxCell id="fUZlL1Y9kI9AsYJCedoD-233" value="" style="endArrow=none;html=1;rounded=0;" edge="1" parent="1">
          <mxGeometry width="50" height="50" relative="1" as="geometry">
            <mxPoint x="465" y="840" as="sourcePoint" />
            <mxPoint x="565" y="839.5" as="targetPoint" />
          </mxGeometry>
        </mxCell>
        <mxCell id="fUZlL1Y9kI9AsYJCedoD-234" value="" style="endArrow=none;html=1;rounded=0;" edge="1" parent="1">
          <mxGeometry width="50" height="50" relative="1" as="geometry">
            <mxPoint x="465" y="860" as="sourcePoint" />
            <mxPoint x="565" y="910" as="targetPoint" />
          </mxGeometry>
        </mxCell>
        <mxCell id="fUZlL1Y9kI9AsYJCedoD-235" value="" style="endArrow=none;html=1;rounded=0;" edge="1" parent="1">
          <mxGeometry width="50" height="50" relative="1" as="geometry">
            <mxPoint x="475" y="900" as="sourcePoint" />
            <mxPoint x="555" y="1000" as="targetPoint" />
          </mxGeometry>
        </mxCell>
        <mxCell id="fUZlL1Y9kI9AsYJCedoD-236" value="" style="endArrow=none;html=1;rounded=0;" edge="1" parent="1">
          <mxGeometry width="50" height="50" relative="1" as="geometry">
            <mxPoint x="455" y="910" as="sourcePoint" />
            <mxPoint x="565" y="1110" as="targetPoint" />
          </mxGeometry>
        </mxCell>
        <mxCell id="fUZlL1Y9kI9AsYJCedoD-237" value="student monitoring" style="ellipse;whiteSpace=wrap;html=1;" vertex="1" parent="1">
          <mxGeometry x="565" y="1300" width="120" height="80" as="geometry" />
        </mxCell>
        <mxCell id="fUZlL1Y9kI9AsYJCedoD-238" value="" style="endArrow=none;html=1;rounded=0;entryX=0.008;entryY=0.275;entryDx=0;entryDy=0;entryPerimeter=0;" edge="1" parent="1" target="fUZlL1Y9kI9AsYJCedoD-243">
          <mxGeometry width="50" height="50" relative="1" as="geometry">
            <mxPoint x="435" y="910" as="sourcePoint" />
            <mxPoint x="555" y="1190" as="targetPoint" />
          </mxGeometry>
        </mxCell>
        <mxCell id="fUZlL1Y9kI9AsYJCedoD-239" value="" style="endArrow=none;html=1;rounded=0;" edge="1" parent="1">
          <mxGeometry width="50" height="50" relative="1" as="geometry">
            <mxPoint x="515" y="580" as="sourcePoint" />
            <mxPoint x="515" y="40" as="targetPoint" />
          </mxGeometry>
        </mxCell>
        <mxCell id="fUZlL1Y9kI9AsYJCedoD-240" value="" style="endArrow=none;html=1;rounded=0;" edge="1" parent="1">
          <mxGeometry width="50" height="50" relative="1" as="geometry">
            <mxPoint x="515" y="1310" as="sourcePoint" />
            <mxPoint x="515" y="710" as="targetPoint" />
          </mxGeometry>
        </mxCell>
        <mxCell id="fUZlL1Y9kI9AsYJCedoD-241" value="close account" style="ellipse;whiteSpace=wrap;html=1;" vertex="1" parent="1">
          <mxGeometry x="555" y="570" width="120" height="80" as="geometry" />
        </mxCell>
        <mxCell id="fUZlL1Y9kI9AsYJCedoD-242" value="" style="endArrow=none;html=1;rounded=0;entryX=0;entryY=0.375;entryDx=0;entryDy=0;entryPerimeter=0;" edge="1" parent="1">
          <mxGeometry width="50" height="50" relative="1" as="geometry">
            <mxPoint x="415" y="310" as="sourcePoint" />
            <mxPoint x="555" y="590" as="targetPoint" />
          </mxGeometry>
        </mxCell>
        <mxCell id="fUZlL1Y9kI9AsYJCedoD-243" value="close account" style="ellipse;whiteSpace=wrap;html=1;" vertex="1" parent="1">
          <mxGeometry x="565" y="1190" width="120" height="80" as="geometry" />
        </mxCell>
        <mxCell id="fUZlL1Y9kI9AsYJCedoD-244" value="" style="endArrow=none;html=1;rounded=0;" edge="1" parent="1">
          <mxGeometry width="50" height="50" relative="1" as="geometry">
            <mxPoint x="425" y="920" as="sourcePoint" />
            <mxPoint x="565" y="1330" as="targetPoint" />
          </mxGeometry>
        </mxCell>
        <mxCell id="fUZlL1Y9kI9AsYJCedoD-245" value="Chat" style="text;html=1;strokeColor=none;fillColor=none;align=center;verticalAlign=middle;whiteSpace=wrap;rounded=0;" vertex="1" parent="1">
          <mxGeometry x="380" y="30" width="60" height="30" as="geometry" />
        </mxCell>
        <mxCell id="fUZlL1Y9kI9AsYJCedoD-246" value="ElÃ¨ve" style="shape=umlActor;verticalLabelPosition=bottom;verticalAlign=top;html=1;outlineConnect=0;" vertex="1" parent="1">
          <mxGeometry x="700" y="150" width="30" height="60" as="geometry" />
        </mxCell>
        <mxCell id="fUZlL1Y9kI9AsYJCedoD-247" value="professeur" style="shape=umlActor;verticalLabelPosition=bottom;verticalAlign=top;html=1;outlineConnect=0;" vertex="1" parent="1">
          <mxGeometry x="730" y="820" width="30" height="60" as="geometry" />
        </mxCell>
        <mxCell id="fUZlL1Y9kI9AsYJCedoD-248" value="Username" style="ellipse;whiteSpace=wrap;html=1;" vertex="1" parent="1">
          <mxGeometry x="860" y="60" width="120" height="80" as="geometry" />
        </mxCell>
        <mxCell id="fUZlL1Y9kI9AsYJCedoD-249" value="passeword" style="ellipse;whiteSpace=wrap;html=1;" vertex="1" parent="1">
          <mxGeometry x="860" y="170" width="120" height="80" as="geometry" />
        </mxCell>
        <mxCell id="fUZlL1Y9kI9AsYJCedoD-250" value="remember me" style="ellipse;whiteSpace=wrap;html=1;" vertex="1" parent="1">
          <mxGeometry x="860" y="280" width="120" height="80" as="geometry" />
        </mxCell>
        <mxCell id="fUZlL1Y9kI9AsYJCedoD-251" value="forgot your passeword" style="ellipse;whiteSpace=wrap;html=1;" vertex="1" parent="1">
          <mxGeometry x="850" y="390" width="140" height="80" as="geometry" />
        </mxCell>
        <mxCell id="fUZlL1Y9kI9AsYJCedoD-252" value="new here? sign up" style="ellipse;whiteSpace=wrap;html=1;" vertex="1" parent="1">
          <mxGeometry x="860" y="490" width="120" height="80" as="geometry" />
        </mxCell>
        <mxCell id="fUZlL1Y9kI9AsYJCedoD-253" value="" style="endArrow=none;html=1;rounded=0;entryX=-0.025;entryY=0.594;entryDx=0;entryDy=0;entryPerimeter=0;" edge="1" parent="1" target="fUZlL1Y9kI9AsYJCedoD-248">
          <mxGeometry width="50" height="50" relative="1" as="geometry">
            <mxPoint x="740" y="190" as="sourcePoint" />
            <mxPoint x="800" y="140" as="targetPoint" />
          </mxGeometry>
        </mxCell>
        <mxCell id="fUZlL1Y9kI9AsYJCedoD-254" value="" style="endArrow=none;html=1;rounded=0;" edge="1" parent="1" target="fUZlL1Y9kI9AsYJCedoD-250">
          <mxGeometry width="50" height="50" relative="1" as="geometry">
            <mxPoint x="740" y="235" as="sourcePoint" />
            <mxPoint x="790" y="185" as="targetPoint" />
          </mxGeometry>
        </mxCell>
        <mxCell id="fUZlL1Y9kI9AsYJCedoD-255" value="" style="endArrow=none;html=1;rounded=0;" edge="1" parent="1" target="fUZlL1Y9kI9AsYJCedoD-249">
          <mxGeometry width="50" height="50" relative="1" as="geometry">
            <mxPoint x="750" y="210" as="sourcePoint" />
            <mxPoint x="800" y="160" as="targetPoint" />
          </mxGeometry>
        </mxCell>
        <mxCell id="fUZlL1Y9kI9AsYJCedoD-256" value="" style="endArrow=none;html=1;rounded=0;entryX=0.179;entryY=0.069;entryDx=0;entryDy=0;entryPerimeter=0;" edge="1" parent="1" target="fUZlL1Y9kI9AsYJCedoD-251">
          <mxGeometry width="50" height="50" relative="1" as="geometry">
            <mxPoint x="740" y="270" as="sourcePoint" />
            <mxPoint x="790" y="220" as="targetPoint" />
          </mxGeometry>
        </mxCell>
        <mxCell id="fUZlL1Y9kI9AsYJCedoD-257" value="" style="endArrow=none;html=1;rounded=0;entryX=0;entryY=0.375;entryDx=0;entryDy=0;entryPerimeter=0;" edge="1" parent="1" target="fUZlL1Y9kI9AsYJCedoD-252">
          <mxGeometry width="50" height="50" relative="1" as="geometry">
            <mxPoint x="720" y="290" as="sourcePoint" />
            <mxPoint x="850" y="500" as="targetPoint" />
          </mxGeometry>
        </mxCell>
        <mxCell id="fUZlL1Y9kI9AsYJCedoD-258" value="Username" style="ellipse;whiteSpace=wrap;html=1;" vertex="1" parent="1">
          <mxGeometry x="870" y="710" width="120" height="80" as="geometry" />
        </mxCell>
        <mxCell id="fUZlL1Y9kI9AsYJCedoD-259" value="passeword" style="ellipse;whiteSpace=wrap;html=1;" vertex="1" parent="1">
          <mxGeometry x="870" y="800" width="120" height="80" as="geometry" />
        </mxCell>
        <mxCell id="fUZlL1Y9kI9AsYJCedoD-260" value="remember me" style="ellipse;whiteSpace=wrap;html=1;" vertex="1" parent="1">
          <mxGeometry x="870" y="900" width="120" height="80" as="geometry" />
        </mxCell>
        <mxCell id="fUZlL1Y9kI9AsYJCedoD-261" value="forgot your passeword" style="ellipse;whiteSpace=wrap;html=1;" vertex="1" parent="1">
          <mxGeometry x="860" y="1000" width="140" height="80" as="geometry" />
        </mxCell>
        <mxCell id="fUZlL1Y9kI9AsYJCedoD-262" value="new here? sign up" style="ellipse;whiteSpace=wrap;html=1;" vertex="1" parent="1">
          <mxGeometry x="870" y="1100" width="120" height="80" as="geometry" />
        </mxCell>
        <mxCell id="fUZlL1Y9kI9AsYJCedoD-263" value="" style="endArrow=none;html=1;rounded=0;" edge="1" parent="1">
          <mxGeometry width="50" height="50" relative="1" as="geometry">
            <mxPoint x="763" y="832" as="sourcePoint" />
            <mxPoint x="860" y="770" as="targetPoint" />
          </mxGeometry>
        </mxCell>
        <mxCell id="fUZlL1Y9kI9AsYJCedoD-264" value="" style="endArrow=none;html=1;rounded=0;" edge="1" parent="1">
          <mxGeometry width="50" height="50" relative="1" as="geometry">
            <mxPoint x="770" y="850" as="sourcePoint" />
            <mxPoint x="870" y="849.5" as="targetPoint" />
          </mxGeometry>
        </mxCell>
        <mxCell id="fUZlL1Y9kI9AsYJCedoD-265" value="" style="endArrow=none;html=1;rounded=0;" edge="1" parent="1">
          <mxGeometry width="50" height="50" relative="1" as="geometry">
            <mxPoint x="770" y="870" as="sourcePoint" />
            <mxPoint x="870" y="920" as="targetPoint" />
          </mxGeometry>
        </mxCell>
        <mxCell id="fUZlL1Y9kI9AsYJCedoD-266" value="" style="endArrow=none;html=1;rounded=0;" edge="1" parent="1">
          <mxGeometry width="50" height="50" relative="1" as="geometry">
            <mxPoint x="780" y="910" as="sourcePoint" />
            <mxPoint x="860" y="1010" as="targetPoint" />
          </mxGeometry>
        </mxCell>
        <mxCell id="fUZlL1Y9kI9AsYJCedoD-267" value="" style="endArrow=none;html=1;rounded=0;" edge="1" parent="1">
          <mxGeometry width="50" height="50" relative="1" as="geometry">
            <mxPoint x="760" y="920" as="sourcePoint" />
            <mxPoint x="870" y="1120" as="targetPoint" />
          </mxGeometry>
        </mxCell>
        <mxCell id="fUZlL1Y9kI9AsYJCedoD-268" value="student monitoring" style="ellipse;whiteSpace=wrap;html=1;" vertex="1" parent="1">
          <mxGeometry x="870" y="1310" width="120" height="80" as="geometry" />
        </mxCell>
        <mxCell id="fUZlL1Y9kI9AsYJCedoD-269" value="" style="endArrow=none;html=1;rounded=0;entryX=0.008;entryY=0.275;entryDx=0;entryDy=0;entryPerimeter=0;" edge="1" parent="1" target="fUZlL1Y9kI9AsYJCedoD-274">
          <mxGeometry width="50" height="50" relative="1" as="geometry">
            <mxPoint x="740" y="920" as="sourcePoint" />
            <mxPoint x="860" y="1200" as="targetPoint" />
          </mxGeometry>
        </mxCell>
        <mxCell id="fUZlL1Y9kI9AsYJCedoD-270" value="" style="endArrow=none;html=1;rounded=0;" edge="1" parent="1">
          <mxGeometry width="50" height="50" relative="1" as="geometry">
            <mxPoint x="820" y="590" as="sourcePoint" />
            <mxPoint x="820" y="50" as="targetPoint" />
          </mxGeometry>
        </mxCell>
        <mxCell id="fUZlL1Y9kI9AsYJCedoD-271" value="" style="endArrow=none;html=1;rounded=0;" edge="1" parent="1">
          <mxGeometry width="50" height="50" relative="1" as="geometry">
            <mxPoint x="820" y="1320" as="sourcePoint" />
            <mxPoint x="820" y="720" as="targetPoint" />
          </mxGeometry>
        </mxCell>
        <mxCell id="fUZlL1Y9kI9AsYJCedoD-272" value="close account" style="ellipse;whiteSpace=wrap;html=1;" vertex="1" parent="1">
          <mxGeometry x="860" y="580" width="120" height="80" as="geometry" />
        </mxCell>
        <mxCell id="fUZlL1Y9kI9AsYJCedoD-273" value="" style="endArrow=none;html=1;rounded=0;entryX=0;entryY=0.375;entryDx=0;entryDy=0;entryPerimeter=0;" edge="1" parent="1">
          <mxGeometry width="50" height="50" relative="1" as="geometry">
            <mxPoint x="720" y="320" as="sourcePoint" />
            <mxPoint x="860" y="600" as="targetPoint" />
          </mxGeometry>
        </mxCell>
        <mxCell id="fUZlL1Y9kI9AsYJCedoD-274" value="close account" style="ellipse;whiteSpace=wrap;html=1;" vertex="1" parent="1">
          <mxGeometry x="870" y="1200" width="120" height="80" as="geometry" />
        </mxCell>
        <mxCell id="fUZlL1Y9kI9AsYJCedoD-275" value="" style="endArrow=none;html=1;rounded=0;" edge="1" parent="1">
          <mxGeometry width="50" height="50" relative="1" as="geometry">
            <mxPoint x="730" y="930" as="sourcePoint" />
            <mxPoint x="870" y="1340" as="targetPoint" />
          </mxGeometry>
        </mxCell>
        <mxCell id="fUZlL1Y9kI9AsYJCedoD-276" value="Calendrier" style="text;html=1;strokeColor=none;fillColor=none;align=center;verticalAlign=middle;whiteSpace=wrap;rounded=0;" vertex="1" parent="1">
          <mxGeometry x="685" y="40" width="60" height="30" as="geometry" />
        </mxCell>
      </root>
    </mxGraphModel>
  </diagram>
</mxfile>
